<svg width="526" height="559" viewBox="0 0 526 559" fill="none" xmlns="http://www.w3.org/2000/svg">
<path d="M13 113.127H513" stroke="black" stroke-width="25" stroke-linecap="round"/>
<path d="M13.2192 113L263.219 546.013" stroke="black" stroke-width="25" stroke-linecap="round"/>
<path d="M513 113.127L263 546.139" stroke="black" stroke-width="25" stroke-linecap="round"/>
<mask id="path-4-inside-1_2_50" fill="white">
<path d="M322.044 251.095C325.702 250.732 328.406 247.458 327.668 243.856C324.828 229.986 317.554 217.324 306.837 207.81C294.446 196.809 278.353 190.813 261.728 191.004C245.104 191.196 229.156 197.56 217.025 208.844C206.533 218.603 199.556 231.43 197.042 245.362C196.389 248.979 199.167 252.189 202.832 252.467V252.467C206.491 252.745 209.641 249.991 210.383 246.398C212.582 235.752 218.052 225.98 226.12 218.475C235.824 209.448 248.584 204.357 261.883 204.204C275.182 204.05 288.057 208.847 297.969 217.648C306.212 224.965 311.909 234.61 314.355 245.203C315.181 248.778 318.393 251.457 322.044 251.095V251.095Z"/>
</mask>
<path d="M322.044 251.095C325.702 250.732 328.406 247.458 327.668 243.856C324.828 229.986 317.554 217.324 306.837 207.81C294.446 196.809 278.353 190.813 261.728 191.004C245.104 191.196 229.156 197.56 217.025 208.844C206.533 218.603 199.556 231.43 197.042 245.362C196.389 248.979 199.167 252.189 202.832 252.467V252.467C206.491 252.745 209.641 249.991 210.383 246.398C212.582 235.752 218.052 225.98 226.12 218.475C235.824 209.448 248.584 204.357 261.883 204.204C275.182 204.05 288.057 208.847 297.969 217.648C306.212 224.965 311.909 234.61 314.355 245.203C315.181 248.778 318.393 251.457 322.044 251.095V251.095Z" stroke="black" stroke-width="100" mask="url(#path-4-inside-1_2_50)"/>
<mask id="path-5-inside-2_2_50" fill="white">
<path d="M321.106 272.952C324.711 273.687 327.066 277.225 325.958 280.734C322.13 292.86 314.838 303.681 304.901 311.844C293.233 321.428 278.618 326.773 263.474 326.993C248.329 327.213 233.563 322.296 221.617 313.054C211.444 305.184 203.836 294.58 199.652 282.57C198.441 279.095 200.692 275.489 204.274 274.649V274.649C207.84 273.813 211.371 276.04 212.66 279.468C216.087 288.577 221.999 296.613 229.794 302.643C239.35 310.036 251.163 313.97 263.279 313.794C275.394 313.618 287.086 309.343 296.421 301.675C304.033 295.422 309.705 287.219 312.862 278.016C314.05 274.55 317.516 272.22 321.106 272.952V272.952Z"/>
</mask>
<path d="M321.106 272.952C324.711 273.687 327.066 277.225 325.958 280.734C322.13 292.86 314.838 303.681 304.901 311.844C293.233 321.428 278.618 326.773 263.474 326.993C248.329 327.213 233.563 322.296 221.617 313.054C211.444 305.184 203.836 294.58 199.652 282.57C198.441 279.095 200.692 275.489 204.274 274.649V274.649C207.84 273.813 211.371 276.04 212.66 279.468C216.087 288.577 221.999 296.613 229.794 302.643C239.35 310.036 251.163 313.97 263.279 313.794C275.394 313.618 287.086 309.343 296.421 301.675C304.033 295.422 309.705 287.219 312.862 278.016C314.05 274.55 317.516 272.22 321.106 272.952V272.952Z" stroke="black" stroke-width="100" mask="url(#path-5-inside-2_2_50)"/>
<ellipse cx="262.5" cy="257" rx="37.5" ry="37" stroke="black" stroke-width="12"/>
<circle cx="263" cy="63" r="50" stroke="black" stroke-width="25"/>
<path d="M322 247L329.182 249.074C338.2 251.678 347.54 253 356.927 253L385 253" stroke="black" stroke-width="10" stroke-linecap="round"/>
<path d="M322 277L327.241 275.234C337.53 271.768 348.313 270 359.17 270H385" stroke="black" stroke-width="10" stroke-linecap="round"/>
<path d="M203 247L195.818 249.074C186.8 251.678 177.46 253 168.073 253L140 253" stroke="black" stroke-width="10" stroke-linecap="round"/>
<path d="M203 277L197.759 275.234C187.47 271.768 176.687 270 165.83 270H140" stroke="black" stroke-width="10" stroke-linecap="round"/>
<path d="M289 317V404" stroke="black" stroke-width="12" stroke-linecap="round"/>
<path d="M236 317V379" stroke="black" stroke-width="12" stroke-linecap="round"/>
<path d="M199 427H251.01" stroke="black" stroke-width="12" stroke-linecap="round"/>
<path d="M72 220H115" stroke="black" stroke-width="12" stroke-linecap="round"/>
<path d="M340 317H392.01" stroke="black" stroke-width="12" stroke-linecap="round"/>
<path d="M149 361H185" stroke="black" stroke-width="12" stroke-linecap="round"/>
<path d="M263 468H315.01" stroke="black" stroke-width="12" stroke-linecap="round"/>
<path d="M340 195L465 195" stroke="black" stroke-width="12" stroke-linecap="round"/>
<path d="M47 167L172 167" stroke="black" stroke-width="12" stroke-linecap="round"/>
</svg>
